<svg xmlns="http://www.w3.org/2000/svg" xmlns:xlink="http://www.w3.org/1999/xlink" contentStyleType="text/css" data-diagram-type="CLASS" height="1052px" preserveAspectRatio="none" style="width:3166px;height:1052px;background:#FFFFFF;" version="1.1" viewBox="0 0 3166 1052" width="3166px" zoomAndPan="magnify"><title>Projeto Final POO - Folha de Pagamento</title><defs/><g><g class="title" data-source-line="1"><text fill="#000000" font-family="sans-serif" font-size="14" font-weight="bold" lengthAdjust="spacing" textLength="317.5293" x="1417.2354" y="22.9951">Projeto Final POO - Folha de Pagamento</text></g><!--cluster model--><g class="cluster" data-entity="model" data-source-line="3" data-uid="ent0002" id="cluster_model"><path d="M525.5,247.7769 L575.0215,247.7769 A3.75,3.75 0 0 1 577.5215,250.2769 L584.5215,270.0737 L1898.5,270.0737 A2.5,2.5 0 0 1 1901,272.5737 L1901,1043.1069 A2.5,2.5 0 0 1 1898.5,1045.6069 L525.5,1045.6069 A2.5,2.5 0 0 1 523,1043.1069 L523,250.2769 A2.5,2.5 0 0 1 525.5,247.7769" fill="none" style="stroke:#000000;stroke-width:1.5;"/><line style="stroke:#000000;stroke-width:1.5;" x1="523" x2="584.5215" y1="270.0737" y2="270.0737"/><text fill="#000000" font-family="sans-serif" font-size="14" font-weight="bold" lengthAdjust="spacing" textLength="48.5215" x="527" y="262.772">model</text></g><!--cluster exceptions--><g class="cluster" data-entity="exceptions" data-source-line="55" data-uid="ent0012" id="cluster_exceptions"><path d="M2861.5,84.0369 L2948.25,84.0369 A3.75,3.75 0 0 1 2950.75,86.5369 L2957.75,106.3337 L3156.5,106.3337 A2.5,2.5 0 0 1 3159,108.8337 L3159,417.6169 A2.5,2.5 0 0 1 3156.5,420.1169 L2861.5,420.1169 A2.5,2.5 0 0 1 2859,417.6169 L2859,86.5369 A2.5,2.5 0 0 1 2861.5,84.0369" fill="none" style="stroke:#000000;stroke-width:1.5;"/><line style="stroke:#000000;stroke-width:1.5;" x1="2859" x2="2957.75" y1="106.3337" y2="106.3337"/><text fill="#000000" font-family="sans-serif" font-size="14" font-weight="bold" lengthAdjust="spacing" textLength="85.75" x="2863" y="99.032">exceptions</text></g><!--cluster dao--><g class="cluster" data-entity="dao" data-source-line="61" data-uid="ent0016" id="cluster_dao"><path d="M8.5,43.2969 L38.5869,43.2969 A3.75,3.75 0 0 1 41.0869,45.7969 L48.0869,65.5938 L2832.5,65.5938 A2.5,2.5 0 0 1 2835,68.0938 L2835,221.2769 A2.5,2.5 0 0 1 2832.5,223.7769 L8.5,223.7769 A2.5,2.5 0 0 1 6,221.2769 L6,45.7969 A2.5,2.5 0 0 1 8.5,43.2969" fill="none" style="stroke:#000000;stroke-width:1.5;"/><line style="stroke:#000000;stroke-width:1.5;" x1="6" x2="48.0869" y1="65.5938" y2="65.5938"/><text fill="#000000" font-family="sans-serif" font-size="14" font-weight="bold" lengthAdjust="spacing" textLength="29.0869" x="10" y="58.292">dao</text></g><!--class Pessoa--><g class="entity" data-entity="Pessoa" data-source-line="4" data-uid="ent0003" id="entity_Pessoa"><rect fill="#F1F1F1" height="162.0781" rx="2.5" ry="2.5" style="stroke:#181818;stroke-width:0.5;" width="516.1299" x="538.94" y="290.9269"/><ellipse cx="768.3609" cy="306.9269" fill="#A9DCDF" rx="11" ry="11" style="stroke:#181818;stroke-width:1;"/><path d="M768.4703,302.2706 L767.314,307.3488 L769.6421,307.3488 L768.4703,302.2706 Z M766.9859,300.0363 L769.9703,300.0363 L773.3296,312.4269 L770.8765,312.4269 L770.1109,309.3644 L766.8296,309.3644 L766.0796,312.4269 L763.6421,312.4269 L766.9859,300.0363 Z " fill="#000000"/><text fill="#000000" font-family="sans-serif" font-size="14" font-style="italic" lengthAdjust="spacing" textLength="48.7881" x="788.8609" y="311.7736">Pessoa</text><line style="stroke:#181818;stroke-width:0.5;" x1="539.94" x2="1054.0699" y1="322.9269" y2="322.9269"/><rect fill="none" height="6" style="stroke:#C82930;stroke-width:1;" width="6" x="546.94" y="333.5753"/><text fill="#000000" font-family="sans-serif" font-size="14" lengthAdjust="spacing" textLength="85.9209" x="558.94" y="339.922">String nome</text><rect fill="none" height="6" style="stroke:#C82930;stroke-width:1;" width="6" x="546.94" y="349.8722"/><text fill="#000000" font-family="sans-serif" font-size="14" lengthAdjust="spacing" textLength="67.7441" x="558.94" y="356.2189">String cpf</text><rect fill="none" height="6" style="stroke:#C82930;stroke-width:1;" width="6" x="546.94" y="366.1691"/><text fill="#000000" font-family="sans-serif" font-size="14" lengthAdjust="spacing" textLength="258.9521" x="558.94" y="372.5157">java.time.LocalDate dataNascimento</text><line style="stroke:#181818;stroke-width:0.5;" x1="539.94" x2="1054.0699" y1="379.8175" y2="379.8175"/><ellipse cx="549.94" cy="393.4659" fill="#84BE84" rx="3" ry="3" style="stroke:#038048;stroke-width:1;"/><text fill="#000000" font-family="sans-serif" font-size="14" lengthAdjust="spacing" textLength="490.1299" x="558.94" y="396.8126">Pessoa(String nome, String cpf, java.time.LocalDate dataNascimento)</text><ellipse cx="549.94" cy="409.7628" fill="#84BE84" rx="3" ry="3" style="stroke:#038048;stroke-width:1;"/><text fill="#000000" font-family="sans-serif" font-size="14" lengthAdjust="spacing" textLength="121.4336" x="558.94" y="413.1095">String getNome()</text><ellipse cx="549.94" cy="426.0597" fill="#84BE84" rx="3" ry="3" style="stroke:#038048;stroke-width:1;"/><text fill="#000000" font-family="sans-serif" font-size="14" lengthAdjust="spacing" textLength="103.7354" x="558.94" y="429.4064">String getCpf()</text><ellipse cx="549.94" cy="442.3566" fill="#84BE84" rx="3" ry="3" style="stroke:#038048;stroke-width:1;"/><text fill="#000000" font-family="sans-serif" font-size="14" lengthAdjust="spacing" textLength="294.7588" x="558.94" y="445.7032">java.time.LocalDate getDataNascimento()</text></g><!--class Funcionario--><g class="entity" data-entity="Funcionario" data-source-line="14" data-uid="ent0004" id="entity_Funcionario"><rect fill="#F1F1F1" height="210.9688" rx="2.5" ry="2.5" style="stroke:#181818;stroke-width:0.5;" width="694.8623" x="1034.57" y="521.1569"/><ellipse cx="1336.944" cy="537.1569" fill="#ADD1B2" rx="11" ry="11" style="stroke:#181818;stroke-width:1;"/><path d="M1339.9128,542.7975 Q1339.3346,543.0944 1338.694,543.235 Q1338.0534,543.3912 1337.3503,543.3912 Q1334.8503,543.3912 1333.5221,541.7506 Q1332.2096,540.0944 1332.2096,536.9694 Q1332.2096,533.8444 1333.5221,532.1881 Q1334.8503,530.5319 1337.3503,530.5319 Q1338.0534,530.5319 1338.694,530.6881 Q1339.3503,530.8444 1339.9128,531.1412 L1339.9128,533.86 Q1339.2878,533.2819 1338.694,533.0162 Q1338.1003,532.735 1337.4753,532.735 Q1336.1315,532.735 1335.444,533.8131 Q1334.7565,534.8756 1334.7565,536.9694 Q1334.7565,539.0631 1335.444,540.1412 Q1336.1315,541.2037 1337.4753,541.2037 Q1338.1003,541.2037 1338.694,540.9381 Q1339.2878,540.6569 1339.9128,540.0787 L1339.9128,542.7975 Z " fill="#000000"/><text fill="#000000" font-family="sans-serif" font-size="14" lengthAdjust="spacing" textLength="81.6143" x="1357.444" y="542.0036">Funcionario</text><line style="stroke:#181818;stroke-width:0.5;" x1="1035.57" x2="1728.4323" y1="553.1569" y2="553.1569"/><rect fill="none" height="6" style="stroke:#C82930;stroke-width:1;" width="6" x="1042.57" y="563.8053"/><text fill="#000000" font-family="sans-serif" font-size="14" lengthAdjust="spacing" textLength="137.0059" x="1054.57" y="570.152">double salarioBruto</text><rect fill="none" height="6" style="stroke:#C82930;stroke-width:1;" width="6" x="1042.57" y="580.1022"/><text fill="#000000" font-family="sans-serif" font-size="14" lengthAdjust="spacing" textLength="143.7393" x="1054.57" y="586.4489">double descontoInss</text><rect fill="none" height="6" style="stroke:#C82930;stroke-width:1;" width="6" x="1042.57" y="596.3991"/><text fill="#000000" font-family="sans-serif" font-size="14" lengthAdjust="spacing" textLength="126.0342" x="1054.57" y="602.7457">double descontoIr</text><rect fill="none" height="6" style="stroke:#C82930;stroke-width:1;" width="6" x="1042.57" y="612.6959"/><text fill="#000000" font-family="sans-serif" font-size="14" lengthAdjust="spacing" textLength="289.1602" x="1054.57" y="619.0426">java.util.Set&lt;Dependente&gt; dependentes</text><line style="stroke:#181818;stroke-width:0.5;" x1="1035.57" x2="1728.4323" y1="626.3444" y2="626.3444"/><ellipse cx="1045.57" cy="639.9928" fill="#84BE84" rx="3" ry="3" style="stroke:#038048;stroke-width:1;"/><text fill="#000000" font-family="sans-serif" font-size="14" lengthAdjust="spacing" textLength="668.8623" x="1054.57" y="643.3395">Funcionario(String nome, String cpf, java.time.LocalDate dataNascimento, double salarioBruto)</text><ellipse cx="1045.57" cy="656.2897" fill="#84BE84" rx="3" ry="3" style="stroke:#038048;stroke-width:1;"/><text fill="#000000" font-family="sans-serif" font-size="14" lengthAdjust="spacing" textLength="587.9111" x="1054.57" y="659.6364">void adicionarDependente(Dependente d) throws exceptions.DependenteException</text><ellipse cx="1045.57" cy="672.5866" fill="#84BE84" rx="3" ry="3" style="stroke:#038048;stroke-width:1;"/><text fill="#000000" font-family="sans-serif" font-size="14" lengthAdjust="spacing" textLength="150.4248" x="1054.57" y="675.9332">double calcularINSS()</text><ellipse cx="1045.57" cy="688.8834" fill="#84BE84" rx="3" ry="3" style="stroke:#038048;stroke-width:1;"/><text fill="#000000" font-family="sans-serif" font-size="14" lengthAdjust="spacing" textLength="165.9971" x="1054.57" y="692.2301">double calcularBaseIR()</text><ellipse cx="1045.57" cy="705.1803" fill="#84BE84" rx="3" ry="3" style="stroke:#038048;stroke-width:1;"/><text fill="#000000" font-family="sans-serif" font-size="14" lengthAdjust="spacing" textLength="131.9063" x="1054.57" y="708.527">double calcularIR()</text><ellipse cx="1045.57" cy="721.4772" fill="#84BE84" rx="3" ry="3" style="stroke:#038048;stroke-width:1;"/><text fill="#000000" font-family="sans-serif" font-size="14" lengthAdjust="spacing" textLength="216.9863" x="1054.57" y="724.8239">double calcularSalarioLiquido()</text></g><!--class Tributavel--><g class="entity" data-entity="Tributavel" data-source-line="15" data-uid="ent0006" id="entity_Tributavel"><rect fill="#F1F1F1" height="80.5938" rx="2.5" ry="2.5" style="stroke:#181818;stroke-width:0.5;" width="176.4248" x="1708.79" y="331.6669"/><ellipse cx="1757.3457" cy="347.6669" fill="#B4A7E5" rx="11" ry="11" style="stroke:#181818;stroke-width:1;"/><path d="M1753.2675,343.4325 L1753.2675,341.2762 L1760.6582,341.2762 L1760.6582,343.4325 L1758.1894,343.4325 L1758.1894,351.5106 L1760.6582,351.5106 L1760.6582,353.6669 L1753.2675,353.6669 L1753.2675,351.5106 L1755.7363,351.5106 L1755.7363,343.4325 L1753.2675,343.4325 Z " fill="#000000"/><text fill="#000000" font-family="sans-serif" font-size="14" font-style="italic" lengthAdjust="spacing" textLength="70.8135" x="1777.8457" y="352.5136">Tributavel</text><line style="stroke:#181818;stroke-width:0.5;" x1="1709.79" x2="1884.2148" y1="363.6669" y2="363.6669"/><line style="stroke:#181818;stroke-width:0.5;" x1="1709.79" x2="1884.2148" y1="371.6669" y2="371.6669"/><ellipse cx="1719.79" cy="385.3153" fill="#84BE84" rx="3" ry="3" style="stroke:#038048;stroke-width:1;"/><text fill="#000000" font-family="sans-serif" font-size="14" lengthAdjust="spacing" textLength="150.4248" x="1728.79" y="388.662">double calcularINSS()</text><ellipse cx="1719.79" cy="401.6122" fill="#84BE84" rx="3" ry="3" style="stroke:#038048;stroke-width:1;"/><text fill="#000000" font-family="sans-serif" font-size="14" lengthAdjust="spacing" textLength="131.9063" x="1728.79" y="404.9589">double calcularIR()</text></g><!--class Dependente--><g class="entity" data-entity="Dependente" data-source-line="27" data-uid="ent0008" id="entity_Dependente"><rect fill="#F1F1F1" height="80.5938" rx="2.5" ry="2.5" style="stroke:#181818;stroke-width:0.5;" width="723.2246" x="1020.39" y="792.1269"/><ellipse cx="1334.6312" cy="808.1269" fill="#ADD1B2" rx="11" ry="11" style="stroke:#181818;stroke-width:1;"/><path d="M1337.6,813.7675 Q1337.0218,814.0644 1336.3812,814.205 Q1335.7406,814.3612 1335.0375,814.3612 Q1332.5375,814.3612 1331.2093,812.7206 Q1329.8968,811.0644 1329.8968,807.9394 Q1329.8968,804.8144 1331.2093,803.1581 Q1332.5375,801.5019 1335.0375,801.5019 Q1335.7406,801.5019 1336.3812,801.6581 Q1337.0375,801.8144 1337.6,802.1112 L1337.6,804.83 Q1336.975,804.2519 1336.3812,803.9862 Q1335.7875,803.705 1335.1625,803.705 Q1333.8187,803.705 1333.1312,804.7831 Q1332.4437,805.8456 1332.4437,807.9394 Q1332.4437,810.0331 1333.1312,811.1112 Q1333.8187,812.1737 1335.1625,812.1737 Q1335.7875,812.1737 1336.3812,811.9081 Q1336.975,811.6269 1337.6,811.0487 L1337.6,813.7675 Z " fill="#000000"/><text fill="#000000" font-family="sans-serif" font-size="14" lengthAdjust="spacing" textLength="86.2422" x="1355.1312" y="812.9736">Dependente</text><line style="stroke:#181818;stroke-width:0.5;" x1="1021.39" x2="1742.6146" y1="824.1269" y2="824.1269"/><rect fill="none" height="6" style="stroke:#C82930;stroke-width:1;" width="6" x="1028.39" y="834.7753"/><text fill="#000000" font-family="sans-serif" font-size="14" lengthAdjust="spacing" textLength="160.7402" x="1040.39" y="841.122">Parentesco parentesco</text><line style="stroke:#181818;stroke-width:0.5;" x1="1021.39" x2="1742.6146" y1="848.4237" y2="848.4237"/><ellipse cx="1031.39" cy="862.0722" fill="#84BE84" rx="3" ry="3" style="stroke:#038048;stroke-width:1;"/><text fill="#000000" font-family="sans-serif" font-size="14" lengthAdjust="spacing" textLength="697.2246" x="1040.39" y="865.4189">Dependente(String nome, String cpf, java.time.LocalDate dataNascimento, Parentesco parentesco)</text></g><!--class Parentesco--><g class="entity" data-entity="Parentesco" data-source-line="32" data-uid="ent0010" id="entity_Parentesco"><rect fill="#F1F1F1" height="96.8906" rx="2.5" ry="2.5" style="stroke:#181818;stroke-width:0.5;" width="109.9229" x="1327.04" y="932.7169"/><ellipse cx="1342.04" cy="948.7169" fill="#EB937F" rx="11" ry="11" style="stroke:#181818;stroke-width:1;"/><path d="M1346.1494,954.7169 L1338.4306,954.7169 L1338.4306,942.3263 L1346.1494,942.3263 L1346.1494,944.4825 L1340.8838,944.4825 L1340.8838,947.1544 L1345.6494,947.1544 L1345.6494,949.3106 L1340.8838,949.3106 L1340.8838,952.5606 L1346.1494,952.5606 L1346.1494,954.7169 Z " fill="#000000"/><text fill="#000000" font-family="sans-serif" font-size="14" lengthAdjust="spacing" textLength="77.9229" x="1356.04" y="953.5636">Parentesco</text><line style="stroke:#181818;stroke-width:0.5;" x1="1328.04" x2="1435.9629" y1="964.7169" y2="964.7169"/><text fill="#000000" font-family="sans-serif" font-size="14" lengthAdjust="spacing" textLength="41.5283" x="1333.04" y="981.712">FILHO</text><text fill="#000000" font-family="sans-serif" font-size="14" lengthAdjust="spacing" textLength="75.3867" x="1333.04" y="998.0089">SOBRINHO</text><text fill="#000000" font-family="sans-serif" font-size="14" lengthAdjust="spacing" textLength="59.4521" x="1333.04" y="1014.3057">OUTROS</text><line style="stroke:#181818;stroke-width:0.5;" x1="1328.04" x2="1435.9629" y1="1021.6075" y2="1021.6075"/></g><!--class FolhaPagamento--><g class="entity" data-entity="FolhaPagamento" data-source-line="43" data-uid="ent0011" id="entity_FolhaPagamento"><rect fill="#F1F1F1" height="178.375" rx="2.5" ry="2.5" style="stroke:#181818;stroke-width:0.5;" width="583.5117" x="1090.24" y="282.7769"/><ellipse cx="1318.9329" cy="298.7769" fill="#ADD1B2" rx="11" ry="11" style="stroke:#181818;stroke-width:1;"/><path d="M1321.9016,304.4175 Q1321.3235,304.7144 1320.6829,304.855 Q1320.0422,305.0112 1319.3391,305.0112 Q1316.8391,305.0112 1315.511,303.3706 Q1314.1985,301.7144 1314.1985,298.5894 Q1314.1985,295.4644 1315.511,293.8081 Q1316.8391,292.1519 1319.3391,292.1519 Q1320.0422,292.1519 1320.6829,292.3081 Q1321.3391,292.4644 1321.9016,292.7612 L1321.9016,295.48 Q1321.2766,294.9019 1320.6829,294.6362 Q1320.0891,294.355 1319.4641,294.355 Q1318.1204,294.355 1317.4329,295.4331 Q1316.7454,296.4956 1316.7454,298.5894 Q1316.7454,300.6831 1317.4329,301.7612 Q1318.1204,302.8237 1319.4641,302.8237 Q1320.0891,302.8237 1320.6829,302.5581 Q1321.2766,302.2769 1321.9016,301.6987 L1321.9016,304.4175 Z " fill="#000000"/><text fill="#000000" font-family="sans-serif" font-size="14" lengthAdjust="spacing" textLength="117.626" x="1339.4329" y="303.6236">FolhaPagamento</text><line style="stroke:#181818;stroke-width:0.5;" x1="1091.24" x2="1672.7517" y1="314.7769" y2="314.7769"/><rect fill="none" height="6" style="stroke:#C82930;stroke-width:1;" width="6" x="1098.24" y="325.4253"/><text fill="#000000" font-family="sans-serif" font-size="14" lengthAdjust="spacing" textLength="85.0664" x="1110.24" y="331.772">Long codigo</text><rect fill="none" height="6" style="stroke:#C82930;stroke-width:1;" width="6" x="1098.24" y="341.7222"/><text fill="#000000" font-family="sans-serif" font-size="14" lengthAdjust="spacing" textLength="164.5547" x="1110.24" y="348.0689">Funcionario funcionario</text><rect fill="none" height="6" style="stroke:#C82930;stroke-width:1;" width="6" x="1098.24" y="358.0191"/><text fill="#000000" font-family="sans-serif" font-size="14" lengthAdjust="spacing" textLength="255.5068" x="1110.24" y="364.3657">java.time.LocalDate dataPagamento</text><rect fill="none" height="6" style="stroke:#C82930;stroke-width:1;" width="6" x="1098.24" y="374.3159"/><text fill="#000000" font-family="sans-serif" font-size="14" lengthAdjust="spacing" textLength="148.5244" x="1110.24" y="380.6626">double descontoINSS</text><rect fill="none" height="6" style="stroke:#C82930;stroke-width:1;" width="6" x="1098.24" y="390.6128"/><text fill="#000000" font-family="sans-serif" font-size="14" lengthAdjust="spacing" textLength="130.0059" x="1110.24" y="396.9595">double descontoIR</text><rect fill="none" height="6" style="stroke:#C82930;stroke-width:1;" width="6" x="1098.24" y="406.9097"/><text fill="#000000" font-family="sans-serif" font-size="14" lengthAdjust="spacing" textLength="149.5088" x="1110.24" y="413.2564">double salarioLiquido</text><line style="stroke:#181818;stroke-width:0.5;" x1="1091.24" x2="1672.7517" y1="420.5581" y2="420.5581"/><ellipse cx="1101.24" cy="434.2066" fill="#84BE84" rx="3" ry="3" style="stroke:#038048;stroke-width:1;"/><text fill="#000000" font-family="sans-serif" font-size="14" lengthAdjust="spacing" textLength="557.5117" x="1110.24" y="437.5532">FolhaPagamento(Funcionario funcionario, java.time.LocalDate dataPagamento)</text><ellipse cx="1101.24" cy="450.5034" fill="#84BE84" rx="3" ry="3" style="stroke:#038048;stroke-width:1;"/><text fill="#000000" font-family="sans-serif" font-size="14" lengthAdjust="spacing" textLength="113.4424" x="1110.24" y="453.8501">void processar()</text></g><!--class DependenteException--><g class="entity" data-entity="DependenteException" data-source-line="56" data-uid="ent0013" id="entity_DependenteException"><rect fill="#F1F1F1" height="64.2969" rx="2.5" ry="2.5" style="stroke:#181818;stroke-width:0.5;" width="268.3613" x="2874.82" y="339.8169"/><ellipse cx="2927.0568" cy="355.8169" fill="#ADD1B2" rx="11" ry="11" style="stroke:#181818;stroke-width:1;"/><path d="M2930.0256,361.4575 Q2929.4474,361.7544 2928.8068,361.895 Q2928.1662,362.0513 2927.4631,362.0513 Q2924.9631,362.0513 2923.6349,360.4106 Q2922.3224,358.7544 2922.3224,355.6294 Q2922.3224,352.5044 2923.6349,350.8481 Q2924.9631,349.1919 2927.4631,349.1919 Q2928.1662,349.1919 2928.8068,349.3481 Q2929.4631,349.5044 2930.0256,349.8013 L2930.0256,352.52 Q2929.4006,351.9419 2928.8068,351.6763 Q2928.2131,351.395 2927.5881,351.395 Q2926.2443,351.395 2925.5568,352.4731 Q2924.8693,353.5356 2924.8693,355.6294 Q2924.8693,357.7231 2925.5568,358.8013 Q2926.2443,359.8638 2927.5881,359.8638 Q2928.2131,359.8638 2928.8068,359.5981 Q2929.4006,359.3169 2930.0256,358.7388 L2930.0256,361.4575 Z " fill="#000000"/><text fill="#000000" font-family="sans-serif" font-size="14" lengthAdjust="spacing" textLength="155.3877" x="2947.5568" y="360.6636">DependenteException</text><line style="stroke:#181818;stroke-width:0.5;" x1="2875.82" x2="3142.1813" y1="371.8169" y2="371.8169"/><line style="stroke:#181818;stroke-width:0.5;" x1="2875.82" x2="3142.1813" y1="379.8169" y2="379.8169"/><ellipse cx="2885.82" cy="393.4653" fill="#84BE84" rx="3" ry="3" style="stroke:#038048;stroke-width:1;"/><text fill="#000000" font-family="sans-serif" font-size="14" lengthAdjust="spacing" textLength="242.3613" x="2894.82" y="396.812">DependenteException(String msg)</text></g><!--class Exception--><g class="entity" data-entity="Exception" data-source-line="57" data-uid="ent0014" id="entity_Exception"><rect fill="#F1F1F1" height="48" rx="2.5" ry="2.5" style="stroke:#181818;stroke-width:0.5;" width="101.1455" x="2958.43" y="119.0369"/><ellipse cx="2973.43" cy="135.0369" fill="#ADD1B2" rx="11" ry="11" style="stroke:#181818;stroke-width:1;"/><path d="M2976.3988,140.6775 Q2975.8206,140.9744 2975.18,141.115 Q2974.5394,141.2712 2973.8363,141.2712 Q2971.3363,141.2712 2970.0081,139.6306 Q2968.6956,137.9744 2968.6956,134.8494 Q2968.6956,131.7244 2970.0081,130.0681 Q2971.3363,128.4119 2973.8363,128.4119 Q2974.5394,128.4119 2975.18,128.5681 Q2975.8363,128.7244 2976.3988,129.0212 L2976.3988,131.74 Q2975.7738,131.1619 2975.18,130.8962 Q2974.5863,130.615 2973.9613,130.615 Q2972.6175,130.615 2971.93,131.6931 Q2971.2425,132.7556 2971.2425,134.8494 Q2971.2425,136.9431 2971.93,138.0212 Q2972.6175,139.0837 2973.9613,139.0837 Q2974.5863,139.0837 2975.18,138.8181 Q2975.7738,138.5369 2976.3988,137.9587 L2976.3988,140.6775 Z " fill="#000000"/><text fill="#000000" font-family="sans-serif" font-size="14" lengthAdjust="spacing" textLength="69.1455" x="2987.43" y="139.8836">Exception</text><line style="stroke:#181818;stroke-width:0.5;" x1="2959.43" x2="3058.5755" y1="151.0369" y2="151.0369"/><line style="stroke:#181818;stroke-width:0.5;" x1="2959.43" x2="3058.5755" y1="159.0369" y2="159.0369"/></g><!--class FuncionarioDao--><g class="entity" data-entity="FuncionarioDao" data-source-line="62" data-uid="ent0017" id="entity_FuncionarioDao"><rect fill="#F1F1F1" height="129.4844" rx="2.5" ry="2.5" style="stroke:#181818;stroke-width:0.5;" width="341.0547" x="22.47" y="78.2969"/><ellipse cx="133.9778" cy="94.2969" fill="#ADD1B2" rx="11" ry="11" style="stroke:#181818;stroke-width:1;"/><path d="M136.9466,99.9375 Q136.3684,100.2344 135.7278,100.375 Q135.0872,100.5313 134.3841,100.5313 Q131.8841,100.5313 130.5559,98.8906 Q129.2434,97.2344 129.2434,94.1094 Q129.2434,90.9844 130.5559,89.3281 Q131.8841,87.6719 134.3841,87.6719 Q135.0872,87.6719 135.7278,87.8281 Q136.3841,87.9844 136.9466,88.2813 L136.9466,91 Q136.3216,90.4219 135.7278,90.1563 Q135.1341,89.875 134.5091,89.875 Q133.1653,89.875 132.4778,90.9531 Q131.7903,92.0156 131.7903,94.1094 Q131.7903,96.2031 132.4778,97.2813 Q133.1653,98.3438 134.5091,98.3438 Q135.1341,98.3438 135.7278,98.0781 Q136.3216,97.7969 136.9466,97.2188 L136.9466,99.9375 Z " fill="#000000"/><text fill="#000000" font-family="sans-serif" font-size="14" lengthAdjust="spacing" textLength="109.5391" x="154.4778" y="99.1436">FuncionarioDao</text><line style="stroke:#181818;stroke-width:0.5;" x1="23.47" x2="362.5247" y1="110.2969" y2="110.2969"/><line style="stroke:#181818;stroke-width:0.5;" x1="23.47" x2="362.5247" y1="118.2969" y2="118.2969"/><ellipse cx="33.47" cy="131.9453" fill="#84BE84" rx="3" ry="3" style="stroke:#038048;stroke-width:1;"/><text fill="#000000" font-family="sans-serif" font-size="14" lengthAdjust="spacing" textLength="236.9473" x="42.47" y="135.292">void inserir(domain.Funcionario f)</text><ellipse cx="33.47" cy="148.2422" fill="#84BE84" rx="3" ry="3" style="stroke:#038048;stroke-width:1;"/><text fill="#000000" font-family="sans-serif" font-size="14" lengthAdjust="spacing" textLength="297.0762" x="42.47" y="151.5889">java.util.List&lt;domain.Funcionario&gt; listar()</text><ellipse cx="33.47" cy="164.5391" fill="#84BE84" rx="3" ry="3" style="stroke:#038048;stroke-width:1;"/><text fill="#000000" font-family="sans-serif" font-size="14" lengthAdjust="spacing" textLength="315.0547" x="42.47" y="167.8857">domain.Funcionario buscarPorCpf(String cpf)</text><ellipse cx="33.47" cy="180.8359" fill="#84BE84" rx="3" ry="3" style="stroke:#038048;stroke-width:1;"/><text fill="#000000" font-family="sans-serif" font-size="14" lengthAdjust="spacing" textLength="253.8594" x="42.47" y="184.1826">void atualizar(domain.Funcionario f)</text><ellipse cx="33.47" cy="197.1328" fill="#84BE84" rx="3" ry="3" style="stroke:#038048;stroke-width:1;"/><text fill="#000000" font-family="sans-serif" font-size="14" lengthAdjust="spacing" textLength="218.3262" x="42.47" y="200.4795">void removerPorCpf(String cpf)</text></g><!--class DependenteDao--><g class="entity" data-entity="DependenteDao" data-source-line="70" data-uid="ent0018" id="entity_DependenteDao"><rect fill="#F1F1F1" height="96.8906" rx="2.5" ry="2.5" style="stroke:#181818;stroke-width:0.5;" width="581.4404" x="2237.28" y="94.5869"/><ellipse cx="2466.6667" cy="110.5869" fill="#ADD1B2" rx="11" ry="11" style="stroke:#181818;stroke-width:1;"/><path d="M2469.6355,116.2275 Q2469.0573,116.5244 2468.4167,116.665 Q2467.7761,116.8212 2467.073,116.8212 Q2464.573,116.8212 2463.2448,115.1806 Q2461.9323,113.5244 2461.9323,110.3994 Q2461.9323,107.2744 2463.2448,105.6181 Q2464.573,103.9619 2467.073,103.9619 Q2467.7761,103.9619 2468.4167,104.1181 Q2469.073,104.2744 2469.6355,104.5712 L2469.6355,107.29 Q2469.0105,106.7119 2468.4167,106.4462 Q2467.823,106.165 2467.198,106.165 Q2465.8542,106.165 2465.1667,107.2431 Q2464.4792,108.3056 2464.4792,110.3994 Q2464.4792,112.4931 2465.1667,113.5712 Q2465.8542,114.6337 2467.198,114.6337 Q2467.823,114.6337 2468.4167,114.3681 Q2469.0105,114.0869 2469.6355,113.5087 L2469.6355,116.2275 Z " fill="#000000"/><text fill="#000000" font-family="sans-serif" font-size="14" lengthAdjust="spacing" textLength="114.167" x="2487.1667" y="115.4336">DependenteDao</text><line style="stroke:#181818;stroke-width:0.5;" x1="2238.28" x2="2817.7204" y1="126.5869" y2="126.5869"/><line style="stroke:#181818;stroke-width:0.5;" x1="2238.28" x2="2817.7204" y1="134.5869" y2="134.5869"/><ellipse cx="2248.28" cy="148.2353" fill="#84BE84" rx="3" ry="3" style="stroke:#038048;stroke-width:1;"/><text fill="#000000" font-family="sans-serif" font-size="14" lengthAdjust="spacing" textLength="403.792" x="2257.28" y="151.582">void inserir(domain.Dependente d, String cpfFuncionario)</text><ellipse cx="2248.28" cy="164.5322" fill="#84BE84" rx="3" ry="3" style="stroke:#038048;stroke-width:1;"/><text fill="#000000" font-family="sans-serif" font-size="14" lengthAdjust="spacing" textLength="555.4404" x="2257.28" y="167.8789">java.util.List&lt;domain.Dependente&gt; listarPorFuncionario(String cpfFuncionario)</text><ellipse cx="2248.28" cy="180.8291" fill="#84BE84" rx="3" ry="3" style="stroke:#038048;stroke-width:1;"/><text fill="#000000" font-family="sans-serif" font-size="14" lengthAdjust="spacing" textLength="218.3262" x="2257.28" y="184.1757">void removerPorCpf(String cpf)</text></g><!--class FolhaPagamentoDao--><g class="entity" data-entity="FolhaPagamentoDao" data-source-line="76" data-uid="ent0019" id="entity_FolhaPagamentoDao"><rect fill="#F1F1F1" height="96.8906" rx="2.5" ry="2.5" style="stroke:#181818;stroke-width:0.5;" width="636.415" x="1063.79" y="94.5869"/><ellipse cx="1304.9721" cy="110.5869" fill="#ADD1B2" rx="11" ry="11" style="stroke:#181818;stroke-width:1;"/><path d="M1307.9409,116.2275 Q1307.3628,116.5244 1306.7221,116.665 Q1306.0815,116.8212 1305.3784,116.8212 Q1302.8784,116.8212 1301.5503,115.1806 Q1300.2378,113.5244 1300.2378,110.3994 Q1300.2378,107.2744 1301.5503,105.6181 Q1302.8784,103.9619 1305.3784,103.9619 Q1306.0815,103.9619 1306.7221,104.1181 Q1307.3784,104.2744 1307.9409,104.5712 L1307.9409,107.29 Q1307.3159,106.7119 1306.7221,106.4462 Q1306.1284,106.165 1305.5034,106.165 Q1304.1596,106.165 1303.4721,107.2431 Q1302.7846,108.3056 1302.7846,110.3994 Q1302.7846,112.4931 1303.4721,113.5712 Q1304.1596,114.6337 1305.5034,114.6337 Q1306.1284,114.6337 1306.7221,114.3681 Q1307.3159,114.0869 1307.9409,113.5087 L1307.9409,116.2275 Z " fill="#000000"/><text fill="#000000" font-family="sans-serif" font-size="14" lengthAdjust="spacing" textLength="145.5508" x="1325.4721" y="115.4336">FolhaPagamentoDao</text><line style="stroke:#181818;stroke-width:0.5;" x1="1064.79" x2="1699.205" y1="126.5869" y2="126.5869"/><line style="stroke:#181818;stroke-width:0.5;" x1="1064.79" x2="1699.205" y1="134.5869" y2="134.5869"/><ellipse cx="1074.79" cy="148.2353" fill="#84BE84" rx="3" ry="3" style="stroke:#038048;stroke-width:1;"/><text fill="#000000" font-family="sans-serif" font-size="14" lengthAdjust="spacing" textLength="272.959" x="1083.79" y="151.582">void inserir(domain.FolhaPagamento f)</text><ellipse cx="1074.79" cy="164.5322" fill="#84BE84" rx="3" ry="3" style="stroke:#038048;stroke-width:1;"/><text fill="#000000" font-family="sans-serif" font-size="14" lengthAdjust="spacing" textLength="333.0879" x="1083.79" y="167.8789">java.util.List&lt;domain.FolhaPagamento&gt; listar()</text><ellipse cx="1074.79" cy="180.8291" fill="#84BE84" rx="3" ry="3" style="stroke:#038048;stroke-width:1;"/><text fill="#000000" font-family="sans-serif" font-size="14" lengthAdjust="spacing" textLength="610.415" x="1083.79" y="184.1757">java.util.List&lt;domain.FolhaPagamento&gt; listarPorCpfFuncionario(String cpfFuncionario)</text></g><!--class LeitorCsv--><g class="entity" data-entity="LeitorCsv" data-source-line="84" data-uid="ent0020" id="entity_LeitorCsv"><rect fill="#F1F1F1" height="64.2969" rx="2.5" ry="2.5" style="stroke:#181818;stroke-width:0.5;" width="466.6172" x="1735.69" y="110.8869"/><ellipse cx="1932.0147" cy="126.8869" fill="#ADD1B2" rx="11" ry="11" style="stroke:#181818;stroke-width:1;"/><path d="M1934.9835,132.5275 Q1934.4053,132.8244 1933.7647,132.965 Q1933.1241,133.1212 1932.421,133.1212 Q1929.921,133.1212 1928.5928,131.4806 Q1927.2803,129.8244 1927.2803,126.6994 Q1927.2803,123.5744 1928.5928,121.9181 Q1929.921,120.2619 1932.421,120.2619 Q1933.1241,120.2619 1933.7647,120.4181 Q1934.421,120.5744 1934.9835,120.8712 L1934.9835,123.59 Q1934.3585,123.0119 1933.7647,122.7462 Q1933.171,122.465 1932.546,122.465 Q1931.2022,122.465 1930.5147,123.5431 Q1929.8272,124.6056 1929.8272,126.6994 Q1929.8272,128.7931 1930.5147,129.8712 Q1931.2022,130.9337 1932.546,130.9337 Q1933.171,130.9337 1933.7647,130.6681 Q1934.3585,130.3869 1934.9835,129.8087 L1934.9835,132.5275 Z " fill="#000000"/><text fill="#000000" font-family="sans-serif" font-size="14" lengthAdjust="spacing" textLength="65.4678" x="1952.5147" y="131.7336">LeitorCsv</text><line style="stroke:#181818;stroke-width:0.5;" x1="1736.69" x2="2201.3072" y1="142.8869" y2="142.8869"/><line style="stroke:#181818;stroke-width:0.5;" x1="1736.69" x2="2201.3072" y1="150.8869" y2="150.8869"/><ellipse cx="1746.69" cy="164.5353" fill="#84BE84" rx="3" ry="3" style="stroke:#038048;stroke-width:1;"/><text fill="#000000" font-family="sans-serif" font-size="14" lengthAdjust="spacing" textLength="440.6172" x="1755.69" y="167.882">java.util.List&lt;domain.Funcionario&gt; lerArquivo(String caminho)</text></g><!--class EscritorCsv--><g class="entity" data-entity="EscritorCsv" data-source-line="88" data-uid="ent0021" id="entity_EscritorCsv"><rect fill="#F1F1F1" height="64.2969" rx="2.5" ry="2.5" style="stroke:#181818;stroke-width:0.5;" width="630.1055" x="398.95" y="110.8869"/><ellipse cx="670.429" cy="126.8869" fill="#ADD1B2" rx="11" ry="11" style="stroke:#181818;stroke-width:1;"/><path d="M673.3978,132.5275 Q672.8196,132.8244 672.179,132.965 Q671.5384,133.1212 670.8353,133.1212 Q668.3353,133.1212 667.0071,131.4806 Q665.6946,129.8244 665.6946,126.6994 Q665.6946,123.5744 667.0071,121.9181 Q668.3353,120.2619 670.8353,120.2619 Q671.5384,120.2619 672.179,120.4181 Q672.8353,120.5744 673.3978,120.8712 L673.3978,123.59 Q672.7728,123.0119 672.179,122.7462 Q671.5853,122.465 670.9603,122.465 Q669.6165,122.465 668.929,123.5431 Q668.2415,124.6056 668.2415,126.6994 Q668.2415,128.7931 668.929,129.8712 Q669.6165,130.9337 670.9603,130.9337 Q671.5853,130.9337 672.179,130.6681 Q672.7728,130.3869 673.3978,129.8087 L673.3978,132.5275 Z " fill="#000000"/><text fill="#000000" font-family="sans-serif" font-size="14" lengthAdjust="spacing" textLength="78.6475" x="690.929" y="131.7336">EscritorCsv</text><line style="stroke:#181818;stroke-width:0.5;" x1="399.95" x2="1028.0555" y1="142.8869" y2="142.8869"/><line style="stroke:#181818;stroke-width:0.5;" x1="399.95" x2="1028.0555" y1="150.8869" y2="150.8869"/><ellipse cx="409.95" cy="164.5353" fill="#84BE84" rx="3" ry="3" style="stroke:#038048;stroke-width:1;"/><text fill="#000000" font-family="sans-serif" font-size="14" lengthAdjust="spacing" textLength="604.1055" x="418.95" y="167.882">void escreverArquivo(String caminho, java.util.List&lt;domain.FolhaPagamento&gt; folhas)</text></g><!--reverse link Pessoa to Funcionario--><g class="link" data-entity-1="Pessoa" data-entity-2="Funcionario" data-source-line="15" data-uid="lnk5" id="link_Pessoa_Funcionario"><path d="M999.825,460.5729 C1049.335,481.9529 1087,498.2269 1139.05,520.6969" fill="none" id="Pessoa-backto-Funcionario" style="stroke:#181818;stroke-width:1;"/><polygon fill="none" points="983.3,453.4369,997.4464,466.0813,1002.2037,455.0646,983.3,453.4369" style="stroke:#181818;stroke-width:1;"/></g><!--reverse link Tributavel to Funcionario--><g class="link" data-entity-1="Tributavel" data-entity-2="Funcionario" data-source-line="15" data-uid="lnk7" id="link_Tributavel_Funcionario"><path d="M1739.813,424.3856 C1721.253,440.3756 1712.56,446.6669 1691,461.1569 C1660.23,481.8269 1626.58,501.9869 1593.16,520.7069" fill="none" id="Tributavel-backto-Funcionario" style="stroke:#181818;stroke-width:1;stroke-dasharray:7,7;"/><polygon fill="none" points="1753.45,412.6369,1735.8968,419.8399,1743.7292,428.9312,1753.45,412.6369" style="stroke:#181818;stroke-width:1;"/></g><!--reverse link Pessoa to Dependente--><g class="link" data-entity-1="Pessoa" data-entity-2="Dependente" data-source-line="28" data-uid="lnk9" id="link_Pessoa_Dependente"><path d="M832.33,469.8552 C865.68,552.0152 921.94,660.8369 1017,732.1269 C1051.81,758.2269 1093.04,777.4669 1135.05,791.6469" fill="none" id="Pessoa-backto-Dependente" style="stroke:#181818;stroke-width:1;"/><polygon fill="none" points="825.56,453.1769,826.7705,472.1119,837.8894,467.5986,825.56,453.1769" style="stroke:#181818;stroke-width:1;"/></g><!--reverse link Exception to DependenteException--><g class="link" data-entity-1="Exception" data-entity-2="DependenteException" data-source-line="57" data-uid="lnk15" id="link_Exception_DependenteException"><path d="M3009,185.4669 C3009,226.4569 3009,293.2169 3009,339.3569" fill="none" id="Exception-backto-DependenteException" style="stroke:#181818;stroke-width:1;"/><polygon fill="none" points="3009,167.4669,3003,185.4669,3015,185.4669,3009,167.4669" style="stroke:#181818;stroke-width:1;"/></g><!--reverse link Funcionario to Dependente--><g class="link" data-entity-1="Funcionario" data-entity-2="Dependente" data-source-line="99" data-uid="lnk22" id="link_Funcionario_Dependente"><path codeLine="99" d="M1382,744.5169 C1382,765.7769 1382,774.8569 1382,792.0669" fill="none" id="Funcionario-backto-Dependente" style="stroke:#181818;stroke-width:1;"/><polygon fill="none" points="1382,732.5169,1378,738.5169,1382,744.5169,1386,738.5169,1382,732.5169" style="stroke:#181818;stroke-width:1;"/><text fill="#000000" font-family="sans-serif" font-size="13" lengthAdjust="spacing" textLength="8.271" x="1373.7403" y="752.2057">1</text><text fill="#000000" font-family="sans-serif" font-size="13" lengthAdjust="spacing" textLength="6.5" x="1375.5269" y="780.9198">*</text></g><!--link FolhaPagamento to Funcionario--><g class="link" data-entity-1="FolhaPagamento" data-entity-2="Funcionario" data-source-line="101" data-uid="lnk23" id="link_FolhaPagamento_Funcionario"><path codeLine="101" d="M1382,461.3369 C1382,480.5469 1382,495.0569 1382,514.8269" fill="none" id="FolhaPagamento-to-Funcionario" style="stroke:#181818;stroke-width:1;"/><polygon fill="#181818" points="1382,520.8269,1386,511.8269,1382,515.8269,1378,511.8269,1382,520.8269" style="stroke:#181818;stroke-width:1;"/></g><!--link Dependente to Parentesco--><g class="link" data-entity-1="Dependente" data-entity-2="Parentesco" data-source-line="102" data-uid="lnk24" id="link_Dependente_Parentesco"><path codeLine="102" d="M1382,873.1269 C1382,891.3769 1382,907.1769 1382,926.3169" fill="none" id="Dependente-to-Parentesco" style="stroke:#181818;stroke-width:1;"/><polygon fill="#181818" points="1382,932.3169,1386,923.3169,1382,927.3169,1378,923.3169,1382,932.3169" style="stroke:#181818;stroke-width:1;"/></g><!--link FuncionarioDao to Funcionario--><g class="link" data-entity-1="FuncionarioDao" data-entity-2="Funcionario" data-source-line="105" data-uid="lnk25" id="link_FuncionarioDao_Funcionario"><path codeLine="105" d="M239.99,207.9869 C297.61,281.3969 402.36,399.5969 521,461.1569 C678.45,542.8569 865.0685,583.4956 1028.1385,604.3556" fill="none" id="FuncionarioDao-to-Funcionario" style="stroke:#181818;stroke-width:1;"/><polygon fill="#181818" points="1034.09,605.1169,1025.6703,600.0072,1029.1304,604.4824,1024.6552,607.9426,1034.09,605.1169" style="stroke:#181818;stroke-width:1;"/></g><!--link DependenteDao to Dependente--><g class="link" data-entity-1="DependenteDao" data-entity-2="Dependente" data-source-line="106" data-uid="lnk26" id="link_DependenteDao_Dependente"><path codeLine="106" d="M2479.08,191.7769 C2362.4,303.0269 2054.52,581.4769 1747,732.1269 C1695.54,757.3269 1642.5641,775.3285 1587.4241,790.1585" fill="none" id="DependenteDao-to-Dependente" style="stroke:#181818;stroke-width:1;"/><polygon fill="#181818" points="1581.63,791.7169,1591.36,793.2421,1586.4584,790.4183,1589.2823,785.5166,1581.63,791.7169" style="stroke:#181818;stroke-width:1;"/></g><!--link FolhaPagamentoDao to FolhaPagamento--><g class="link" data-entity-1="FolhaPagamentoDao" data-entity-2="FolhaPagamento" data-source-line="107" data-uid="lnk27" id="link_FolhaPagamentoDao_FolhaPagamento"><path codeLine="107" d="M1382,191.8869 C1382,218.1569 1382,245.5669 1382,276.4069" fill="none" id="FolhaPagamentoDao-to-FolhaPagamento" style="stroke:#181818;stroke-width:1;"/><polygon fill="#181818" points="1382,282.4069,1386,273.4069,1382,277.4069,1378,273.4069,1382,282.4069" style="stroke:#181818;stroke-width:1;"/></g><!--link LeitorCsv to Funcionario--><g class="link" data-entity-1="LeitorCsv" data-entity-2="Funcionario" data-source-line="110" data-uid="lnk28" id="link_LeitorCsv_Funcionario"><path codeLine="110" d="M1972.07,175.6169 C1976.34,238.3969 1976.54,379.8169 1903,461.1569 C1856.8,512.2469 1800.4969,545.4872 1735.5069,569.8972" fill="none" id="LeitorCsv-to-Funcionario" style="stroke:#181818;stroke-width:1;"/><polygon fill="#181818" points="1729.89,572.0069,1739.7218,572.5869,1734.5707,570.2488,1736.9089,565.0978,1729.89,572.0069" style="stroke:#181818;stroke-width:1;"/></g><!--link EscritorCsv to FolhaPagamento--><g class="link" data-entity-1="EscritorCsv" data-entity-2="FolhaPagamento" data-source-line="111" data-uid="lnk29" id="link_EscritorCsv_FolhaPagamento"><path codeLine="111" d="M833.97,175.5969 C933.73,201.9169 1061.26,235.7469 1073,239.7769 C1109.65,252.3769 1142.5615,264.9934 1179.4215,280.1634" fill="none" id="EscritorCsv-to-FolhaPagamento" style="stroke:#181818;stroke-width:1;"/><polygon fill="#181818" points="1184.97,282.4469,1178.1696,275.3226,1180.3463,280.5439,1175.1249,282.7206,1184.97,282.4469" style="stroke:#181818;stroke-width:1;"/></g><!--SRC=[fLRDRjf04Bxp52ik9Kr0wZsDb8IW8Y50EErzs5t8fhRNtLtJgb7UfRUUUkmJy68PO-CT6piGnHVCplytCz_QAHTADZVwKJhDHYg6aCrdCzPd8nq-01CeX3L4CdQwqqc0VuUrP94MCdpgC7nWQPq1xXWFmLesbzPgOBaiU_g1CofUirX7yk2G9oj_zWWR63WLoS54SmY7u2GJu60AbgiyWRtkUHwcHtnVCE_pWXttTUQT5OPhwQRegDSekKrMLD3a7xM6bH25mNDdzvFZCqfZhdGCHcacVpaPYn8p5IMXp0mjkpTgcJhOo90YANIwn6PP23Fp6vCIHFP28ItN67iSMzikD3NKKwV2GI3TvL0cc1Bc8AzGU__kFPsJ_D-3_WLhA8RWkz5AC10gZ-MpwlbN9iwOUp3wfqKWkKmSgjg1bz_j3xtN8YQcn5CCEvu60MrgJNm3LeuNhoYyAWpomYRgHwf4uoYGKcgJG7e-1xFh0DSiALzzK8BCkxhH6AQIiupJYAhv74VZoPTP-I-OtIp6Kt8m-tg_c0NKbK8NPWLSDi_v6zjKTg6wPnbxbSn54Pte31Wjr9fi3rtBbNy_JawU75kN3TDl5oxQrhiO7B9vbOfwBHctjxiqhQzPOZJ7kGDJulZicTwlLe5XVNRBDIk7s9yyDGrgATvFR6JN3O45wATctXm2xMTUWugjDChqX8v0nOCAE7NQtf7TH5btUQXznK8Kb50KytRWSvbQ3cQkJNOj-5qx832NGgX-mz6yTjf6HdeZsxosKCS9O53AfCn0aZaA4RqNSeGmpOQxeDNjMokiJlifBQyk_0bThnWqDVujTdbD9oA2bT9Q9r8vDBSRMkCfeohDjK6MsFXW4AduGJVWUMUvQOYoGnAvoCXDcxE2KOxYiCh-MxB97zZdLnuKBsG8sx_R__XzSKGN7xewtKzTfljzrltO9Qk0EjKPwFUlA6zqo29a8d-PPRaEhsSMUxa6eItR_i6FYjWf0KZKdHhtjBlTIqbEXtEyCw-SPk5lWsz5T8Ow2F7sNuo-_MZKezA67hfy0G00]--></g></svg>